<svg width="25" height="25" viewBox="0 0 25 25" fill="none" xmlns="http://www.w3.org/2000/svg">
<path d="M7.29168 18.75C4.58517 18.75 2.39111 16.6513 2.39111 14.0625C2.39111 11.4737 4.58517 9.375 7.29168 9.375C7.70518 7.53285 9.17925 6.02917 11.1586 5.43039C13.138 4.83161 15.3219 5.22869 16.8878 6.47206C18.4536 7.71542 19.1635 9.61618 18.75 11.4583H19.7917C21.8052 11.4583 23.4375 13.0906 23.4375 15.1042C23.4375 17.1177 21.8052 18.75 19.7917 18.75" stroke="black" stroke-width="2" stroke-linecap="round" stroke-linejoin="round"/>
<path d="M12.4583 13.5417C12.4583 12.9894 12.0106 12.5417 11.4583 12.5417C10.9061 12.5417 10.4583 12.9894 10.4583 13.5417H12.4583ZM10.4583 15.625C10.4583 16.1773 10.9061 16.625 11.4583 16.625C12.0106 16.625 12.4583 16.1773 12.4583 15.625H10.4583ZM12.4583 18.75C12.4583 18.1977 12.0106 17.75 11.4583 17.75C10.9061 17.75 10.4583 18.1977 10.4583 18.75H12.4583ZM10.4583 20.8333C10.4583 21.3856 10.9061 21.8333 11.4583 21.8333C12.0106 21.8333 12.4583 21.3856 12.4583 20.8333H10.4583ZM16.625 15.625C16.625 15.0727 16.1773 14.625 15.625 14.625C15.0727 14.625 14.625 15.0727 14.625 15.625H16.625ZM14.625 17.7083C14.625 18.2606 15.0727 18.7083 15.625 18.7083C16.1773 18.7083 16.625 18.2606 16.625 17.7083H14.625ZM16.625 20.8333C16.625 20.281 16.1773 19.8333 15.625 19.8333C15.0727 19.8333 14.625 20.281 14.625 20.8333H16.625ZM14.625 22.9167C14.625 23.4689 15.0727 23.9167 15.625 23.9167C16.1773 23.9167 16.625 23.4689 16.625 22.9167H14.625ZM10.4583 13.5417V15.625H12.4583V13.5417H10.4583ZM10.4583 18.75V20.8333H12.4583V18.75H10.4583ZM14.625 15.625V17.7083H16.625V15.625H14.625ZM14.625 20.8333V22.9167H16.625V20.8333H14.625Z" fill="black"/>
</svg>
