<svg width="25" height="25" viewBox="0 0 25 25" fill="none" xmlns="http://www.w3.org/2000/svg">
<path d="M3.125 16.7083C2.57272 16.7083 2.125 17.1561 2.125 17.7083C2.125 18.2606 2.57272 18.7083 3.125 18.7083V16.7083ZM4.16667 18.7083C4.71895 18.7083 5.16667 18.2606 5.16667 17.7083C5.16667 17.1561 4.71895 16.7083 4.16667 16.7083V18.7083ZM20.8333 16.7083C20.281 16.7083 19.8333 17.1561 19.8333 17.7083C19.8333 18.2606 20.281 18.7083 20.8333 18.7083V16.7083ZM21.875 18.7083C22.4273 18.7083 22.875 18.2606 22.875 17.7083C22.875 17.1561 22.4273 16.7083 21.875 16.7083V18.7083ZM6.54044 10.3346C6.14991 9.94406 5.51675 9.94406 5.12622 10.3346C4.7357 10.7251 4.7357 11.3583 5.12623 11.7488L6.54044 10.3346ZM5.85539 12.478C6.24592 12.8685 6.87908 12.8685 7.26961 12.478C7.66013 12.0874 7.66013 11.4543 7.2696 11.0637L5.85539 12.478ZM19.8738 11.7488C20.2643 11.3583 20.2643 10.7251 19.8738 10.3346C19.4832 9.94406 18.8501 9.94406 18.4596 10.3346L19.8738 11.7488ZM17.7304 11.0637C17.3399 11.4543 17.3399 12.0874 17.7304 12.478C18.1209 12.8685 18.7541 12.8685 19.1446 12.478L17.7304 11.0637ZM7.33333 17.7084C7.33333 18.2606 7.78105 18.7084 8.33333 18.7084C8.88562 18.7084 9.33333 18.2606 9.33333 17.7084H7.33333ZM15.6667 17.7084C15.6667 18.2606 16.1144 18.7084 16.6667 18.7084C17.219 18.7084 17.6667 18.2606 17.6667 17.7084H15.6667ZM3.125 18.7083H4.16667V16.7083H3.125V18.7083ZM20.8333 18.7083H21.875V16.7083H20.8333V18.7083ZM5.12623 11.7488L5.85539 12.478L7.2696 11.0637L6.54044 10.3346L5.12623 11.7488ZM18.4596 10.3346L17.7304 11.0637L19.1446 12.478L19.8738 11.7488L18.4596 10.3346ZM9.33333 17.7084C9.33333 15.9595 10.7511 14.5417 12.5 14.5417V12.5417C9.64653 12.5417 7.33333 14.8549 7.33333 17.7084H9.33333ZM12.5 14.5417C14.2489 14.5417 15.6667 15.9595 15.6667 17.7084H17.6667C17.6667 14.8549 15.3535 12.5417 12.5 12.5417V14.5417Z" fill="black"/>
<path d="M3.125 21.875H21.875" stroke="black" stroke-width="2" stroke-linecap="round" stroke-linejoin="round"/>
<path d="M11.5 9.375C11.5 9.92728 11.9477 10.375 12.5 10.375C13.0523 10.375 13.5 9.92728 13.5 9.375H11.5ZM12.5 3.125L13.2071 2.41789C12.9211 2.1319 12.491 2.04634 12.1173 2.20112C11.7436 2.3559 11.5 2.72054 11.5 3.125H12.5ZM14.9179 6.95711C15.3084 7.34763 15.9416 7.34763 16.3321 6.95711C16.7226 6.56658 16.7226 5.93342 16.3321 5.54289L14.9179 6.95711ZM8.66789 5.54289C8.27737 5.93342 8.27737 6.56658 8.66789 6.95711C9.05842 7.34763 9.69158 7.34763 10.0821 6.95711L8.66789 5.54289ZM13.2071 3.83211C13.5976 3.44158 13.5976 2.80842 13.2071 2.41789C12.8166 2.02737 12.1834 2.02737 11.7929 2.41789L13.2071 3.83211ZM13.5 9.375V3.125H11.5V9.375H13.5ZM11.7929 3.83211L14.9179 6.95711L16.3321 5.54289L13.2071 2.41789L11.7929 3.83211ZM10.0821 6.95711L13.2071 3.83211L11.7929 2.41789L8.66789 5.54289L10.0821 6.95711Z" fill="black"/>
</svg>
