<svg width="25" height="25" viewBox="0 0 25 25" fill="none" xmlns="http://www.w3.org/2000/svg">
<path d="M3.125 16.7083C2.57272 16.7083 2.125 17.156 2.125 17.7083C2.125 18.2606 2.57272 18.7083 3.125 18.7083V16.7083ZM4.16667 18.7083C4.71895 18.7083 5.16667 18.2606 5.16667 17.7083C5.16667 17.156 4.71895 16.7083 4.16667 16.7083V18.7083ZM20.8333 16.7083C20.281 16.7083 19.8333 17.156 19.8333 17.7083C19.8333 18.2606 20.281 18.7083 20.8333 18.7083V16.7083ZM21.875 18.7083C22.4273 18.7083 22.875 18.2606 22.875 17.7083C22.875 17.156 22.4273 16.7083 21.875 16.7083V18.7083ZM6.54044 10.3345C6.14992 9.94403 5.51675 9.94403 5.12623 10.3345C4.7357 10.7251 4.7357 11.3582 5.12623 11.7488L6.54044 10.3345ZM5.85539 12.4779C6.24592 12.8685 6.87908 12.8685 7.26961 12.4779C7.66013 12.0874 7.66013 11.4542 7.26961 11.0637L5.85539 12.4779ZM19.8738 11.7488C20.2643 11.3582 20.2643 10.7251 19.8738 10.3345C19.4832 9.94403 18.8501 9.94403 18.4596 10.3346L19.8738 11.7488ZM17.7304 11.0637C17.3399 11.4542 17.3399 12.0874 17.7304 12.4779C18.1209 12.8685 18.7541 12.8685 19.1446 12.4779L17.7304 11.0637ZM7.33333 17.7083C7.33333 18.2606 7.78105 18.7083 8.33333 18.7083C8.88562 18.7083 9.33333 18.2606 9.33333 17.7083H7.33333ZM15.6667 17.7083C15.6667 18.2606 16.1144 18.7083 16.6667 18.7083C17.219 18.7083 17.6667 18.2606 17.6667 17.7083H15.6667ZM3.125 18.7083H4.16667V16.7083H3.125V18.7083ZM20.8333 18.7083H21.875V16.7083H20.8333V18.7083ZM5.12623 11.7488L5.85539 12.4779L7.26961 11.0637L6.54044 10.3345L5.12623 11.7488ZM18.4596 10.3346L17.7304 11.0637L19.1446 12.4779L19.8738 11.7488L18.4596 10.3346ZM9.33333 17.7083C9.33333 15.9594 10.7511 14.5417 12.5 14.5417V12.5417C9.64653 12.5417 7.33333 14.8549 7.33333 17.7083H9.33333ZM12.5 14.5417C14.2489 14.5417 15.6667 15.9594 15.6667 17.7083H17.6667C17.6667 14.8549 15.3535 12.5417 12.5 12.5417V14.5417Z" fill="black"/>
<path d="M3.125 21.875H21.875" stroke="black" stroke-width="2" stroke-linecap="round" stroke-linejoin="round"/>
<path d="M13.5 3.125C13.5 2.57272 13.0523 2.125 12.5 2.125C11.9477 2.125 11.5 2.57272 11.5 3.125H13.5ZM12.5 9.375H11.5C11.5 9.77946 11.7436 10.1441 12.1173 10.2989C12.491 10.4537 12.9211 10.3681 13.2071 10.0821L12.5 9.375ZM16.3321 6.95711C16.7226 6.56658 16.7226 5.93342 16.3321 5.54289C15.9416 5.15237 15.3084 5.15237 14.9179 5.54289L16.3321 6.95711ZM10.0821 5.54289C9.69158 5.15237 9.05842 5.15237 8.66789 5.54289C8.27737 5.93342 8.27737 6.56658 8.66789 6.95711L10.0821 5.54289ZM11.7929 10.0821C12.1834 10.4726 12.8166 10.4726 13.2071 10.0821C13.5976 9.69158 13.5976 9.05842 13.2071 8.66789L11.7929 10.0821ZM11.5 3.125V9.375H13.5V3.125H11.5ZM13.2071 10.0821L16.3321 6.95711L14.9179 5.54289L11.7929 8.66789L13.2071 10.0821ZM8.66789 6.95711L11.7929 10.0821L13.2071 8.66789L10.0821 5.54289L8.66789 6.95711Z" fill="black"/>
</svg>
