<svg width="25" height="25" viewBox="0 0 25 25" fill="none" xmlns="http://www.w3.org/2000/svg">
<path d="M5.20834 8.33334H14.0625C15.406 8.35904 16.5484 7.35838 16.6999 6.02326C16.8514 4.68813 15.9622 3.45694 14.6471 3.18099C13.3321 2.90504 12.023 3.67493 11.625 4.95834" stroke="black" stroke-width="2" stroke-linecap="round" stroke-linejoin="round"/>
<path d="M3.125 12.5H19.2708C20.6143 12.4743 21.7567 13.4749 21.9082 14.8101C22.0597 16.1452 21.1705 17.3764 19.8555 17.6523C18.5404 17.9283 17.2313 17.1584 16.8333 15.875" stroke="black" stroke-width="2" stroke-linecap="round" stroke-linejoin="round"/>
<path d="M4.16666 16.6667H9.89583C11.2393 16.6409 12.3817 17.6416 12.5332 18.9767C12.6847 20.3119 11.7955 21.543 10.4805 21.819C9.16541 22.095 7.85631 21.3251 7.45833 20.0417" stroke="black" stroke-width="2" stroke-linecap="round" stroke-linejoin="round"/>
</svg>
