<svg width="54" height="54" viewBox="0 0 54 54" fill="none" xmlns="http://www.w3.org/2000/svg">
<circle cx="27" cy="27" r="20.25" stroke="white" stroke-width="2" stroke-linecap="round" stroke-linejoin="round"/>
<path d="M17.1259 35.5142C16.8576 35.997 17.0315 36.6058 17.5142 36.8741C17.9969 37.1424 18.6058 36.9685 18.8741 36.4858L17.1259 35.5142ZM21.3626 32.0083C21.6309 31.5256 21.457 30.9167 20.9743 30.6484C20.4916 30.3801 19.8827 30.554 19.6144 31.0367L21.3626 32.0083ZM22.7644 25.3623C22.4961 25.845 22.67 26.4538 23.1527 26.7221C23.6355 26.9904 24.2443 26.8165 24.5126 26.3337L22.7644 25.3623ZM30.1241 16.2357C30.3923 15.753 30.2185 15.1442 29.7357 14.8759C29.253 14.6076 28.6441 14.7815 28.3759 15.2643L30.1241 16.2357ZM18.8741 36.4858L21.3626 32.0083L19.6144 31.0367L17.1259 35.5142L18.8741 36.4858ZM24.5126 26.3337L30.1241 16.2357L28.3759 15.2643L22.7644 25.3623L24.5126 26.3337Z" fill="white"/>
<path d="M15.75 30.5C15.1977 30.5 14.75 30.9477 14.75 31.5C14.75 32.0523 15.1977 32.5 15.75 32.5V30.5ZM27 32.5C27.5523 32.5 28 32.0523 28 31.5C28 30.9477 27.5523 30.5 27 30.5V32.5ZM33.525 30.5C32.9727 30.5 32.525 30.9477 32.525 31.5C32.525 32.0523 32.9727 32.5 33.525 32.5V30.5ZM38.25 32.5C38.8023 32.5 39.25 32.0523 39.25 31.5C39.25 30.9477 38.8023 30.5 38.25 30.5V32.5ZM15.75 32.5H27V30.5H15.75V32.5ZM33.525 32.5H38.25V30.5H33.525V32.5Z" fill="white"/>
<path d="M35.1258 36.4857C35.394 36.9685 36.0028 37.1424 36.4856 36.8742C36.9684 36.606 37.1424 35.9972 36.8741 35.5144L35.1258 36.4857ZM31.2266 25.3489C30.9584 24.8661 30.3496 24.6922 29.8668 24.9604C29.3841 25.2286 29.2101 25.8374 29.4783 26.3202L31.2266 25.3489ZM26.1326 20.297C26.4009 20.7797 27.0097 20.9536 27.4925 20.6854C27.9752 20.4171 28.1491 19.8083 27.8809 19.3255L26.1326 20.297ZM25.6241 15.2643C25.3559 14.7815 24.747 14.6076 24.2643 14.8759C23.7815 15.1441 23.6076 15.753 23.8759 16.2357L25.6241 15.2643ZM36.8741 35.5144L31.2266 25.3489L29.4783 26.3202L35.1258 36.4857L36.8741 35.5144ZM27.8809 19.3255L25.6241 15.2643L23.8759 16.2357L26.1326 20.297L27.8809 19.3255Z" fill="white"/>
</svg>
