<svg width="240" height="52" viewBox="0 0 240 52" fill="none" xmlns="http://www.w3.org/2000/svg">
<path fill-rule="evenodd" clip-rule="evenodd" d="M240 0H113.502V15.8229C113.117 15.7991 112.721 15.7872 112.313 15.7872C110.566 15.7872 108.798 16.016 107.01 16.4736C105.222 16.9312 103.6 17.576 102.144 18.408C100.689 19.2816 99.9609 20.176 99.9609 21.0912C99.9609 21.5488 100.086 21.944 100.335 22.2768C100.626 22.568 100.98 22.7136 101.396 22.7136C101.77 22.7136 102.207 22.5472 102.706 22.2144C103.246 21.84 103.579 21.6112 103.704 21.528C106.49 19.9056 109.422 19.0944 112.5 19.0944C112.847 19.0944 113.181 19.1078 113.502 19.1345V29.4257C110.814 29.5482 108.588 29.7861 106.823 30.1392C104.12 30.68 102.186 31.5952 101.021 32.8848C99.8569 34.1328 99.2955 35.9008 99.3371 38.1888C99.3371 39.8944 99.8154 41.4336 100.772 42.8064C101.728 44.1792 102.997 45.2608 104.577 46.0512C106.199 46.8416 107.987 47.2368 109.942 47.2368C111.215 47.2368 112.402 47.0638 113.502 46.7179V52H240V0ZM113.502 43.4089V46.7179C114.271 46.4761 114.997 46.1499 115.681 45.7392C117.345 44.6992 118.613 43.2432 119.487 41.3712V45.1152C119.487 45.6976 119.653 46.176 119.986 46.5504C120.318 46.8832 120.776 47.0496 121.358 47.0496C121.94 47.0496 122.398 46.8832 122.731 46.5504C123.063 46.176 123.23 45.6976 123.23 45.1152V27.3312C123.23 23.4624 122.315 20.5712 120.485 18.6576C118.896 16.9573 116.568 16.0124 113.502 15.8229V19.1345C115.408 19.2935 116.841 19.9249 117.802 21.0288C118.925 22.2768 119.487 24.2736 119.487 27.0192V29.328H118.177C116.488 29.328 114.93 29.3606 113.502 29.4257V32.2361C111.759 32.3183 110.303 32.4514 109.131 32.6352C107.01 32.968 105.513 33.5504 104.64 34.3824C103.766 35.1728 103.33 36.3376 103.33 37.8768C103.33 39.624 103.995 41.08 105.326 42.2448C106.657 43.368 108.299 43.9296 110.254 43.9296C111.431 43.9296 112.514 43.756 113.502 43.4089ZM113.502 43.4089V32.2361C114.914 32.1693 116.514 32.136 118.301 32.136H119.487V34.1952C119.487 37.024 118.613 39.3536 116.867 41.184C115.904 42.2173 114.782 42.9589 113.502 43.4089ZM61.6341 2.4336C60.8439 2.4336 60.3033 2.8288 60.0121 3.6192L46.8494 41.4336L33.8114 4.1808C33.6451 3.6816 33.3747 3.3072 33.0004 3.0576C32.6261 2.7664 32.2103 2.6208 31.7528 2.6208C31.3369 2.6208 30.9418 2.7456 30.5675 2.9952C30.2348 3.2448 29.9853 3.6192 29.8189 4.1184L16.7186 41.4336L3.55581 3.6192C3.38946 3.2448 3.16072 2.9536 2.8696 2.7456C2.57849 2.5376 2.24578 2.4336 1.87148 2.4336C1.37242 2.4336 0.935741 2.6 0.561445 2.9328C0.187149 3.224 0 3.6192 0 4.1184C0 4.2432 0.0415897 4.472 0.124767 4.8048L14.5975 45.7392C14.7639 46.1968 15.0342 46.5504 15.4085 46.8C15.7828 47.0496 16.1779 47.1744 16.5938 47.1744C17.0513 47.1744 17.4671 47.0496 17.8414 46.8C18.2157 46.5504 18.4861 46.1968 18.6524 45.7392L31.8152 8.7984L44.8531 45.7392C45.0195 46.1968 45.2898 46.5504 45.6641 46.8C46.0384 47.0496 46.4335 47.1744 46.8494 47.1744C47.3069 47.1744 47.7227 47.0496 48.097 46.8C48.5129 46.5504 48.8041 46.1968 48.9704 45.7392L63.4432 4.8048C63.5264 4.472 63.568 4.264 63.568 4.1808C63.568 3.6816 63.36 3.2656 62.9441 2.9328C62.5698 2.6 62.1331 2.4336 61.6341 2.4336ZM91.6411 40.8096C91.3916 40.4768 91.0797 40.3104 90.7054 40.3104C90.3311 40.3104 89.6865 40.6224 88.7715 41.2464C87.3991 42.0368 86.1099 42.6816 84.9038 43.1808C83.6977 43.6384 82.2005 43.8672 80.4122 43.8672C77.002 43.8672 74.3611 42.8688 72.4896 40.872C70.6182 38.8752 69.62 35.9632 69.4953 32.136H90.2687C91.0173 32.136 91.5579 31.9696 91.8907 31.6368C92.2234 31.2624 92.3897 30.7008 92.3897 29.952C92.3897 25.5424 91.246 22.0896 88.9587 19.5936C86.7129 17.056 83.6353 15.7872 79.726 15.7872C76.9396 15.7872 74.4651 16.4528 72.3025 17.784C70.1815 19.0736 68.5179 20.9248 67.3119 23.3376C66.1474 25.7088 65.5652 28.4544 65.5652 31.5744C65.5652 36.4416 66.896 40.2688 69.5577 43.056C72.2193 45.8432 75.8583 47.2368 80.4746 47.2368C83.8017 47.2368 86.9624 46.3424 89.9568 44.5536C91.3708 43.68 92.0778 42.7856 92.0778 41.8704C92.0778 41.4544 91.9322 41.1008 91.6411 40.8096ZM72.7392 21.6528C74.4859 19.8224 76.8148 18.9072 79.726 18.9072C82.5956 18.9072 84.8206 19.8224 86.401 21.6528C87.9813 23.4416 88.8131 26 88.8963 29.328H69.62C69.9527 26.0416 70.9925 23.4832 72.7392 21.6528ZM148.081 45.552C148.081 44.5952 147.499 44.0544 146.334 43.9296L144.65 43.8048C142.529 43.6384 140.969 43.0144 139.971 41.9328C138.973 40.8096 138.474 38.9584 138.474 36.3792V19.5936H146.022C146.563 19.5936 146.979 19.4688 147.27 19.2192C147.561 18.928 147.707 18.5536 147.707 18.096C147.707 17.6384 147.561 17.264 147.27 16.9728C146.979 16.6816 146.563 16.536 146.022 16.536H138.474V8.7984C138.474 8.1744 138.287 7.696 137.912 7.3632C137.58 7.0304 137.122 6.864 136.54 6.864C135.958 6.864 135.5 7.0304 135.168 7.3632C134.835 7.696 134.669 8.1744 134.669 8.7984V16.536H129.928C129.428 16.536 129.033 16.6816 128.742 16.9728C128.451 17.264 128.306 17.6384 128.306 18.096C128.306 18.5536 128.451 18.928 128.742 19.2192C129.033 19.4688 129.428 19.5936 129.928 19.5936H134.669V36.192C134.669 39.728 135.417 42.3696 136.914 44.1168C138.453 45.8224 140.803 46.7792 143.964 46.9872L145.71 47.112C146.542 47.1536 147.145 47.0288 147.519 46.7376C147.894 46.4464 148.081 46.0512 148.081 45.552ZM178.658 27.5184C178.658 19.6976 175.019 15.7872 167.741 15.7872C165.412 15.7872 163.332 16.2864 161.502 17.2848C159.714 18.2832 158.342 19.7184 157.385 21.5904V4.4304C157.385 3.848 157.219 3.3904 156.886 3.0576C156.553 2.6832 156.096 2.496 155.514 2.496C154.931 2.496 154.453 2.6832 154.079 3.0576C153.746 3.3904 153.58 3.848 153.58 4.4304V45.1776C153.58 45.76 153.746 46.2384 154.079 46.6128C154.453 46.9456 154.931 47.112 155.514 47.112C156.096 47.112 156.553 46.9456 156.886 46.6128C157.219 46.2384 157.385 45.76 157.385 45.1776V29.2656C157.385 26.1872 158.279 23.7328 160.068 21.9024C161.897 20.072 164.31 19.1568 167.304 19.1568C169.924 19.1568 171.837 19.8432 173.043 21.216C174.249 22.5888 174.852 24.7728 174.852 27.768V45.1776C174.852 45.76 175.019 46.2384 175.351 46.6128C175.726 46.9456 176.204 47.112 176.786 47.112C177.368 47.112 177.826 46.9456 178.159 46.6128C178.491 46.2384 178.658 45.76 178.658 45.1776V27.5184ZM212.69 40.8096C212.441 40.4768 212.129 40.3104 211.755 40.3104C211.38 40.3104 210.736 40.6224 209.821 41.2464C208.448 42.0368 207.159 42.6816 205.953 43.1808C204.747 43.6384 203.25 43.8672 201.461 43.8672C198.051 43.8672 195.41 42.8688 193.539 40.872C191.667 38.8752 190.669 35.9632 190.544 32.136H211.318C212.066 32.136 212.607 31.9696 212.94 31.6368C213.273 31.2624 213.439 30.7008 213.439 29.952C213.439 25.5424 212.295 22.0896 210.008 19.5936C207.762 17.056 204.685 15.7872 200.775 15.7872C197.989 15.7872 195.514 16.4528 193.352 17.784C191.231 19.0736 189.567 20.9248 188.361 23.3376C187.197 25.7088 186.614 28.4544 186.614 31.5744C186.614 36.4416 187.945 40.2688 190.607 43.056C193.268 45.8432 196.908 47.2368 201.524 47.2368C204.851 47.2368 208.012 46.3424 211.006 44.5536C212.42 43.68 213.127 42.7856 213.127 41.8704C213.127 41.4544 212.981 41.1008 212.69 40.8096ZM193.788 21.6528C195.535 19.8224 197.864 18.9072 200.775 18.9072C203.645 18.9072 205.87 19.8224 207.45 21.6528C209.031 23.4416 209.862 26 209.945 29.328H190.669C191.002 26.0416 192.042 23.4832 193.788 21.6528ZM237.167 16.224C236.835 15.9744 236.273 15.8704 235.483 15.912L234.61 15.9744C229.993 16.3072 226.832 18.2624 225.127 21.84V17.784C225.127 17.2016 224.961 16.744 224.628 16.4112C224.296 16.0784 223.859 15.912 223.318 15.912C222.736 15.912 222.258 16.0784 221.883 16.4112C221.551 16.744 221.384 17.2224 221.384 17.8464V45.1776C221.384 45.8016 221.551 46.28 221.883 46.6128C222.258 46.9456 222.736 47.112 223.318 47.112C223.9 47.112 224.358 46.9456 224.691 46.6128C225.023 46.28 225.19 45.8016 225.19 45.1776V29.016C225.19 26.5616 225.897 24.4192 227.311 22.5888C228.766 20.7584 230.971 19.6976 233.923 19.4064L235.795 19.2192C237.042 19.0944 237.666 18.512 237.666 17.472C237.666 16.8896 237.5 16.4736 237.167 16.224Z" fill="#6CA1D0"/>
</svg>
