<svg width="25" height="25" viewBox="0 0 25 25" fill="none" xmlns="http://www.w3.org/2000/svg">
<path d="M10.8639 3.27222C10.3699 3.02523 9.76923 3.22545 9.52224 3.71943C9.27525 4.21341 9.47547 4.81408 9.96945 5.06107L10.8639 3.27222ZM12.5 5.20831L12.0528 6.10274C12.3343 6.2435 12.6657 6.2435 12.9472 6.10274L12.5 5.20831ZM15.0305 5.06107C15.5245 4.81408 15.7247 4.21341 15.4778 3.71943C15.2308 3.22545 14.6301 3.02523 14.1361 3.27222L15.0305 5.06107ZM13.5 2.08331C13.5 1.53103 13.0523 1.08331 12.5 1.08331C11.9477 1.08331 11.5 1.53103 11.5 2.08331H13.5ZM12.5 8.85415H11.5C11.5 9.21249 11.6917 9.54344 12.0026 9.72168L12.5 8.85415ZM15.1276 11.5133C15.6067 11.788 16.2178 11.6223 16.4925 11.1432C16.7672 10.6641 16.6015 10.053 16.1224 9.77828L15.1276 11.5133ZM9.96945 5.06107L12.0528 6.10274L12.9472 4.31389L10.8639 3.27222L9.96945 5.06107ZM12.9472 6.10274L15.0305 5.06107L14.1361 3.27222L12.0528 4.31389L12.9472 6.10274ZM11.5 2.08331V8.85415H13.5V2.08331H11.5ZM12.0026 9.72168L15.1276 11.5133L16.1224 9.77828L12.9974 7.98662L12.0026 9.72168Z" fill="#9DCBF0"/>
<path d="M19.6734 6.46918C19.6403 5.91789 19.1666 5.4978 18.6153 5.53089C18.064 5.56398 17.6439 6.03772 17.677 6.58901L19.6734 6.46918ZM18.8148 8.85415L17.8166 8.91406C17.8354 9.22825 18.0011 9.51523 18.2638 9.68866L18.8148 8.85415ZM20.2076 10.972C20.6684 11.2763 21.2888 11.1494 21.5931 10.6885C21.8974 10.2276 21.7704 9.60732 21.3095 9.30302L20.2076 10.972ZM22.0211 8.15767C22.4994 7.88153 22.6633 7.26994 22.3871 6.79165C22.111 6.31335 21.4994 6.14948 21.0211 6.42562L22.0211 8.15767ZM15.6574 10.6771L15.1574 9.81104C14.847 9.99021 14.6563 10.3217 14.6574 10.6801L15.6574 10.6771ZM14.6683 14.2822C14.6699 14.8345 15.119 15.2809 15.6713 15.2792C16.2236 15.2776 16.6699 14.8285 16.6683 14.2762L14.6683 14.2822ZM17.677 6.58901L17.8166 8.91406L19.813 8.79423L19.6734 6.46918L17.677 6.58901ZM18.2638 9.68866L20.2076 10.972L21.3095 9.30302L19.3658 8.01963L18.2638 9.68866ZM21.0211 6.42562L15.1574 9.81104L16.1574 11.5431L22.0211 8.15767L21.0211 6.42562ZM14.6574 10.6801L14.6683 14.2822L16.6683 14.2762L16.6574 10.674L14.6574 10.6801Z" fill="#9DCBF0"/>
<path d="M21.3095 15.697C21.7704 15.3927 21.8974 14.7723 21.5931 14.3115C21.2888 13.8506 20.6684 13.7236 20.2076 14.0279L21.3095 15.697ZM18.8148 16.1458L18.2638 15.3113C18.0011 15.4848 17.8354 15.7717 17.8166 16.0859L18.8148 16.1458ZM17.677 18.411C17.6439 18.9623 18.064 19.436 18.6153 19.4691C19.1666 19.5022 19.6403 19.0821 19.6734 18.5308L17.677 18.411ZM21.0211 18.5744C21.4994 18.8505 22.111 18.6866 22.3871 18.2083C22.6633 17.73 22.4994 17.1184 22.0211 16.8423L21.0211 18.5744ZM15.6574 14.3229L16.1574 13.4569C15.8471 13.2777 15.4646 13.2783 15.1548 13.4584L15.6574 14.3229ZM12.0406 15.2689C11.5632 15.5465 11.4012 16.1586 11.6787 16.636C11.9563 17.1135 12.5684 17.2755 13.0459 16.9979L12.0406 15.2689ZM20.2076 14.0279L18.2638 15.3113L19.3658 16.9803L21.3095 15.697L20.2076 14.0279ZM17.8166 16.0859L17.677 18.411L19.6734 18.5308L19.813 16.2057L17.8166 16.0859ZM22.0211 16.8423L16.1574 13.4569L15.1574 15.1889L21.0211 18.5744L22.0211 16.8423ZM15.1548 13.4584L12.0406 15.2689L13.0459 16.9979L16.16 15.1874L15.1548 13.4584Z" fill="#9DCBF0"/>
<path d="M14.1361 21.7278C14.6301 21.9748 15.2308 21.7745 15.4778 21.2806C15.7248 20.7866 15.5245 20.1859 15.0305 19.9389L14.1361 21.7278ZM12.5 19.7917L12.9472 18.8973C12.6657 18.7565 12.3343 18.7565 12.0528 18.8973L12.5 19.7917ZM9.96946 19.9389C9.47548 20.1859 9.27525 20.7866 9.52224 21.2806C9.76923 21.7745 10.3699 21.9748 10.8639 21.7278L9.96946 19.9389ZM11.5 22.9167C11.5 23.469 11.9477 23.9167 12.5 23.9167C13.0523 23.9167 13.5 23.469 13.5 22.9167H11.5ZM12.5 16.1459H13.5C13.5 15.7875 13.3083 15.4566 12.9974 15.2783L12.5 16.1459ZM9.87239 13.4867C9.39326 13.212 8.78217 13.3777 8.50747 13.8568C8.23277 14.3359 8.39849 14.947 8.87762 15.2217L9.87239 13.4867ZM15.0305 19.9389L12.9472 18.8973L12.0528 20.6861L14.1361 21.7278L15.0305 19.9389ZM12.0528 18.8973L9.96946 19.9389L10.8639 21.7278L12.9472 20.6861L12.0528 18.8973ZM13.5 22.9167V16.1459H11.5V22.9167H13.5ZM12.9974 15.2783L9.87239 13.4867L8.87762 15.2217L12.0026 17.0134L12.9974 15.2783Z" fill="#9DCBF0"/>
<path d="M5.32659 18.5308C5.35968 19.0821 5.83341 19.5022 6.3847 19.4691C6.936 19.436 7.35608 18.9623 7.32299 18.411L5.32659 18.5308ZM6.18523 16.1459L7.18344 16.0859C7.16458 15.7717 6.99889 15.4848 6.73622 15.3113L6.18523 16.1459ZM4.79245 14.028C4.33156 13.7237 3.71125 13.8506 3.40694 14.3115C3.10264 14.7724 3.22958 15.3927 3.69047 15.697L4.79245 14.028ZM2.9789 16.8423C2.50061 17.1185 2.33673 17.7301 2.61288 18.2084C2.88902 18.6866 3.50061 18.8505 3.9789 18.5744L2.9789 16.8423ZM9.34262 14.3229L9.84262 15.189C10.153 15.0098 10.3437 14.6783 10.3426 14.3199L9.34262 14.3229ZM10.3317 10.7178C10.3301 10.1655 9.88101 9.71911 9.32873 9.72078C8.77645 9.72245 8.33008 10.1715 8.33175 10.7238L10.3317 10.7178ZM7.32299 18.411L7.18344 16.0859L5.18703 16.2058L5.32659 18.5308L7.32299 18.411ZM6.73622 15.3113L4.79245 14.028L3.69047 15.697L5.63424 16.9804L6.73622 15.3113ZM3.9789 18.5744L9.84262 15.189L8.84262 13.4569L2.9789 16.8423L3.9789 18.5744ZM10.3426 14.3199L10.3317 10.7178L8.33175 10.7238L8.34262 14.326L10.3426 14.3199Z" fill="#9DCBF0"/>
<path d="M3.69046 9.30304C3.22958 9.60734 3.10264 10.2277 3.40694 10.6885C3.71124 11.1494 4.33156 11.2764 4.79244 10.9721L3.69046 9.30304ZM6.18523 8.85417L6.73622 9.68868C6.99889 9.51525 7.16457 9.22827 7.18343 8.91408L6.18523 8.85417ZM7.32299 6.58903C7.35608 6.03774 6.93599 5.564 6.3847 5.53091C5.83341 5.49782 5.35967 5.91791 5.32658 6.4692L7.32299 6.58903ZM3.9789 6.42564C3.50061 6.1495 2.88902 6.31337 2.61287 6.79167C2.33673 7.26996 2.50061 7.88155 2.9789 8.15769L3.9789 6.42564ZM9.34261 10.6771L8.84261 11.5431C9.15295 11.7223 9.53543 11.7217 9.84522 11.5416L9.34261 10.6771ZM12.9594 9.7311C13.4368 9.45351 13.5988 8.84143 13.3213 8.36397C13.0437 7.88652 12.4316 7.72449 11.9541 8.00207L12.9594 9.7311ZM4.79244 10.9721L6.73622 9.68868L5.63424 8.01965L3.69046 9.30304L4.79244 10.9721ZM7.18343 8.91408L7.32299 6.58903L5.32658 6.4692L5.18703 8.79425L7.18343 8.91408ZM2.9789 8.15769L8.84261 11.5431L9.84261 9.81106L3.9789 6.42564L2.9789 8.15769ZM9.84522 11.5416L12.9594 9.7311L11.9541 8.00207L8.84 9.81257L9.84522 11.5416Z" fill="#9DCBF0"/>
</svg>
