<svg width="29" height="25" viewBox="0 0 29 25" fill="none" xmlns="http://www.w3.org/2000/svg">
<path d="M6.73076 19.2308C4.23244 19.2308 2.20716 17.2936 2.20716 14.9039C2.20716 12.5142 4.23244 10.577 6.73076 10.577C7.11245 8.87654 8.47312 7.48854 10.3002 6.93581C12.1273 6.38309 14.1433 6.74963 15.5887 7.89735C17.0341 9.04507 17.6894 10.7996 17.3077 12.5001H18.2692C20.1279 12.5001 21.6346 14.0068 21.6346 15.8654C21.6346 17.7241 20.1279 19.2308 18.2692 19.2308H6.73076" stroke="black" stroke-width="2" stroke-linecap="round" stroke-linejoin="round"/>
<path d="M20.7622 13.0699C21.0896 12.7425 21.3493 12.3539 21.5265 11.9261C21.7036 11.4984 21.7948 11.0399 21.7948 10.5769C21.7948 10.1139 21.7036 9.65545 21.5265 9.2277C21.3493 8.79995 21.0896 8.41129 20.7622 8.0839C20.4348 7.75652 20.0462 7.49682 19.6184 7.31964C19.1907 7.14246 18.7322 7.05127 18.2692 7.05127C17.8062 7.05127 17.3477 7.14246 16.92 7.31964C16.4922 7.49682 16.1036 7.75652 15.7762 8.0839L18.2692 10.5769L20.7622 13.0699Z" stroke="black" stroke-width="2" stroke-linecap="round" stroke-linejoin="round"/>
<path d="M19.2692 2.64423C19.2692 2.09194 18.8215 1.64423 18.2692 1.64423C17.7169 1.64423 17.2692 2.09194 17.2692 2.64423H19.2692ZM17.2692 3.52564C17.2692 4.07792 17.7169 4.52564 18.2692 4.52564C18.8215 4.52564 19.2692 4.07792 19.2692 3.52564H17.2692ZM25.3205 9.57691C24.7682 9.57691 24.3205 10.0246 24.3205 10.5769C24.3205 11.1292 24.7682 11.5769 25.3205 11.5769V9.57691ZM26.2019 11.5769C26.7542 11.5769 27.2019 11.1292 27.2019 10.5769C27.2019 10.0246 26.7542 9.57691 26.2019 9.57691V11.5769ZM13.3353 4.22878C12.9448 3.83826 12.3116 3.83826 11.9211 4.22878C11.5306 4.61931 11.5306 5.25247 11.9211 5.643L13.3353 4.22878ZM12.5381 6.25998C12.9286 6.65051 13.5618 6.65051 13.9523 6.25998C14.3428 5.86946 14.3428 5.23629 13.9523 4.84577L12.5381 6.25998ZM24.6173 5.643C25.0079 5.25247 25.0079 4.61931 24.6173 4.22878C24.2268 3.83826 23.5936 3.83826 23.2031 4.22878L24.6173 5.643ZM22.5861 4.84577C22.1956 5.2363 22.1956 5.86946 22.5861 6.25998C22.9767 6.65051 23.6098 6.65051 24.0003 6.25998L22.5861 4.84577ZM24.0003 14.8938C23.6098 14.5033 22.9767 14.5033 22.5861 14.8938C22.1956 15.2844 22.1956 15.9175 22.5861 16.308L24.0003 14.8938ZM23.2031 16.925C23.5936 17.3156 24.2268 17.3156 24.6173 16.925C25.0079 16.5345 25.0079 15.9013 24.6173 15.5108L23.2031 16.925ZM17.2692 2.64423V3.52564H19.2692V2.64423H17.2692ZM25.3205 11.5769H26.2019V9.57691H25.3205V11.5769ZM11.9211 5.643L12.5381 6.25998L13.9523 4.84577L13.3353 4.22878L11.9211 5.643ZM23.2031 4.22878L22.5861 4.84577L24.0003 6.25998L24.6173 5.643L23.2031 4.22878ZM22.5861 16.308L23.2031 16.925L24.6173 15.5108L24.0003 14.8938L22.5861 16.308Z" fill="black"/>
</svg>
